# xmcd CD database file
#
# Track frame offsets:
#	150
#	22363
#	47532
#	70402
#	94644
#	121817
#	146021
#	165486
#	191818
#	220379
#
# Disc length: 3261 seconds
#
# Revision: 1
# Processed by: cddbd v1.4PL0 Copyright (c) Steve Scherf et al.
# Submitted via: CDex 1.50beta8
#
DISCID=930cbb0a
DTITLE=Juan Kemell y la Barriada - Rio Abajo
DYEAR=2002
DGENRE=Salsa
TTITLE0=Loco por mí
TTITLE1=El tacaño
TTITLE2=Rio abajo
TTITLE3=Se paso
TTITLE4=La cabra y el monte
TTITLE5=Te vas quedar sin mi
TTITLE6=Esta separación
TTITLE7=La primera novia
TTITLE8=Cazandote
TTITLE9=El ultimo son del mundo
EXTD=YEAR: 2002
EXTT0=
EXTT1=
EXTT2=
EXTT3=
EXTT4=
EXTT5=
EXTT6=
EXTT7=
EXTT8=
EXTT9=
PLAYORDER=
